<svg width="375" height="256" viewBox="0 0 375 256" fill="none" xmlns="http://www.w3.org/2000/svg">
<path d="M237.864 134.912C244.89 141.938 256.299 141.938 263.325 134.912C270.351 127.886 270.351 116.477 263.325 109.451L247.413 93.548C254.439 100.572 265.846 100.57 272.87 93.5435C279.893 86.5173 279.891 75.1107 272.865 68.087L247.413 42.635C240.385 35.6041 228.987 35.6021 221.956 42.6305C214.926 49.6589 214.924 61.0561 221.952 68.087L206.049 52.175C201.501 47.6268 194.872 45.8506 188.659 47.5153C182.446 49.1801 177.593 54.0329 175.928 60.2458C174.264 66.4587 176.04 73.0878 180.588 77.636M102 213.5L114.6 200.9M260.4 55.1L273 42.5M127.587 213.365C134.611 220.391 146.017 220.393 153.044 213.37C160.07 206.346 160.072 194.939 153.048 187.913L168.951 203.825C175.977 210.851 187.386 210.851 194.412 203.825C201.438 196.799 201.438 185.39 194.412 178.364L137.136 121.088C132.588 116.54 125.959 114.764 119.746 116.428C113.533 118.093 108.68 122.946 107.015 129.159C105.351 135.372 107.127 142.001 111.675 146.549L127.587 162.452C120.556 155.424 109.159 155.426 102.131 162.456C95.1021 169.487 95.1041 180.885 102.135 187.913M165.9 149.6L209.1 106.4" stroke="#FDFFFF" stroke-width="18" stroke-linecap="round" stroke-linejoin="round"/>
<mask id="path-2-inside-1_1_407" fill="white">
<path d="M59.5 128C59.5 57.3076 116.808 0 187.5 0C258.192 0 315.5 57.3076 315.5 128C315.5 198.692 258.192 256 187.5 256C116.808 256 59.5 198.692 59.5 128Z"/>
</mask>
<g clip-path="url(#paint0_diamond_1_407_clip_path)" data-figma-skip-parse="true" mask="url(#path-2-inside-1_1_407)"><g transform="matrix(0.128 0 0 0.128 187.5 0)"><rect x="0" y="0" width="1031.25" height="2031.25" fill="url(#paint0_diamond_1_407)" opacity="1" shape-rendering="crispEdges"/><rect x="0" y="0" width="1031.25" height="2031.25" transform="scale(1 -1)" fill="url(#paint0_diamond_1_407)" opacity="1" shape-rendering="crispEdges"/><rect x="0" y="0" width="1031.25" height="2031.25" transform="scale(-1 1)" fill="url(#paint0_diamond_1_407)" opacity="1" shape-rendering="crispEdges"/><rect x="0" y="0" width="1031.25" height="2031.25" transform="scale(-1)" fill="url(#paint0_diamond_1_407)" opacity="1" shape-rendering="crispEdges"/></g></g><path d="M187.5 256V252C119.017 252 63.5 196.483 63.5 128H59.5H55.5C55.5 200.902 114.598 260 187.5 260V256ZM315.5 128H311.5C311.5 196.483 255.983 252 187.5 252V256V260C260.402 260 319.5 200.902 319.5 128H315.5ZM187.5 0V4C255.983 4 311.5 59.5167 311.5 128H315.5H319.5C319.5 55.0984 260.402 -4 187.5 -4V0ZM187.5 0V-4C114.598 -4 55.5 55.0984 55.5 128H59.5H63.5C63.5 59.5167 119.017 4 187.5 4V0Z" data-figma-gradient-fill="{&#34;type&#34;:&#34;GRADIENT_DIAMOND&#34;,&#34;stops&#34;:[{&#34;color&#34;:{&#34;r&#34;:0.98823529481887817,&#34;g&#34;:0.79215687513351440,&#34;b&#34;:0.054901961237192154,&#34;a&#34;:1.0},&#34;position&#34;:0.99999988079071045},{&#34;color&#34;:{&#34;r&#34;:0.0,&#34;g&#34;:0.0,&#34;b&#34;:0.0,&#34;a&#34;:0.0},&#34;position&#34;:1.0}],&#34;stopsVar&#34;:[],&#34;transform&#34;:{&#34;m00&#34;:256.0,&#34;m01&#34;:0.0,&#34;m02&#34;:59.50,&#34;m10&#34;:0.0,&#34;m11&#34;:256.0,&#34;m12&#34;:-128.0},&#34;opacity&#34;:1.0,&#34;blendMode&#34;:&#34;NORMAL&#34;,&#34;visible&#34;:true}" mask="url(#path-2-inside-1_1_407)"/>
<defs>
<clipPath id="paint0_diamond_1_407_clip_path"><path d="M187.5 256V252C119.017 252 63.5 196.483 63.5 128H59.5H55.5C55.5 200.902 114.598 260 187.5 260V256ZM315.5 128H311.5C311.5 196.483 255.983 252 187.5 252V256V260C260.402 260 319.5 200.902 319.5 128H315.5ZM187.5 0V4C255.983 4 311.5 59.5167 311.5 128H315.5H319.5C319.5 55.0984 260.402 -4 187.5 -4V0ZM187.5 0V-4C114.598 -4 55.5 55.0984 55.5 128H59.5H63.5C63.5 59.5167 119.017 4 187.5 4V0Z" mask="url(#path-2-inside-1_1_407)"/></clipPath><linearGradient id="paint0_diamond_1_407" x1="0" y1="0" x2="500" y2="500" gradientUnits="userSpaceOnUse">
<stop offset="1" stop-color="#FCCA0E"/>
<stop offset="1" stop-opacity="0"/>
</linearGradient>
</defs>
</svg>
